<svg width="15" height="16" viewBox="0 0 15 16" fill="none" xmlns="http://www.w3.org/2000/svg">
<path fill-rule="evenodd" clip-rule="evenodd" d="M13.9362 4.58548C14.0729 4.64221 14.1971 4.72547 14.3015 4.83047C14.406 4.93466 14.4889 5.05852 14.5453 5.19489C14.6016 5.33126 14.6304 5.47744 14.63 5.625V13.2627C14.6297 13.5927 14.5624 13.9193 14.4323 14.2226C14.3023 14.5259 14.112 14.7997 13.8732 15.0275C13.3985 15.4909 12.7613 15.7502 12.0979 15.75H2.53211C1.16055 15.75 0 14.5898 0 13.2188V5.625C0 5.32663 0.118567 5.04048 0.329617 4.82951C0.540668 4.61853 0.826914 4.5 1.12538 4.5H3.37615V3.9375C3.37615 2.89321 3.79114 1.89169 4.52981 1.15327C5.26849 0.414843 6.27035 0 7.315 0C8.35964 0 9.3615 0.414843 10.1002 1.15327C10.8389 1.89169 11.2538 2.89321 11.2538 3.9375V4.5H13.5046C13.6527 4.49971 13.7994 4.52876 13.9362 4.58548ZM7.14087 12.6461C6.83473 12.9654 6.338 12.9654 6.03201 12.6461L4.31397 10.8544C4.00784 10.5353 4.00784 10.0172 4.31397 9.69814C4.61996 9.37887 5.1167 9.37887 5.42283 9.69814L6.44644 10.7655C6.52372 10.8459 6.64915 10.8459 6.72658 10.7655L9.49821 7.875C9.8042 7.55573 10.3009 7.55573 10.6071 7.875C10.7541 8.02832 10.8367 8.23633 10.8367 8.45313C10.8367 8.66993 10.7541 8.87794 10.6071 9.03126L7.14087 12.6461ZM4.50154 4.5H10.1285V3.9375C10.1285 3.19158 9.83204 2.47621 9.30441 1.94876C8.77679 1.42132 8.06117 1.125 7.315 1.125C6.56882 1.125 5.85321 1.42132 5.32558 1.94876C4.79795 2.47621 4.50154 3.19158 4.50154 3.9375V4.5Z" fill="white"/>
</svg>
